<svg width="220" height="220" viewBox="0 0 220 220" fill="none" xmlns="http://www.w3.org/2000/svg">
  <rect width="220" height="220" fill="#0B1120"/>
  <circle cx="110" cy="110" r="71" fill="#08101C" fill-opacity="0.92" stroke="#334155" stroke-width="3"/>
  <clipPath id="orbClip">
    <circle cx="110" cy="110" r="68"/>
  </clipPath>
  <g clip-path="url(#orbClip)">
    <rect x="42" y="151" width="136" height="52" fill="#F59E0B"/>
    <path d="M34 154C50 145 64 147 78 154C92 161 106 163 120 156C134 149 149 146 163 153C177 160 191 160 206 152V210H34V154Z" fill="#F59E0B"/>
    <path d="M30 160C43 153 57 152 72 158C86 164 100 166 114 160C128 154 144 152 159 157C173 162 187 161 200 156V210H30V160Z" fill="#FCD34D" fill-opacity="0.32"/>
  </g>
  <text x="110" y="104" text-anchor="middle" fill="#F8FAFC" font-family="Inter, Arial, sans-serif" font-size="18" font-weight="900">2.95s</text>
  <text x="110" y="126" text-anchor="middle" fill="#F8FAFC" fill-opacity="0.88" font-family="Inter, Arial, sans-serif" font-size="12" font-weight="800">14%</text>
</svg>
