<svg width="740" height="640" viewBox="0 0 740 640" fill="none" xmlns="http://www.w3.org/2000/svg">
  <rect width="740" height="640" fill="#0B1120"/>
  <rect x="15" y="15" width="710" height="610" rx="36" fill="#111827" stroke="#334155" stroke-width="2"/>
  <path d="M32 82H708" stroke="#334155"/>
  <path d="M44 306H696" stroke="#334155"/>
  <text x="42" y="66" fill="#E2E8F0" font-family="Inter, Arial, sans-serif" font-size="30" font-weight="800">平台信息</text>
  <text x="690" y="66" text-anchor="end" fill="#94A3B8" font-family="Inter, Arial, sans-serif" font-size="24" font-weight="700">17:33:06</text>

  <g transform="translate(44 100)">
    <rect width="328" height="176" rx="24" fill="#0B1120" stroke="#334155" stroke-width="2"/>
    <text x="24" y="54" fill="#CBD5E1" font-family="Inter, Arial, sans-serif" font-size="26" font-weight="800">今日总 Token</text>
    <text x="24" y="112" fill="#20E3B2" font-family="Inter, Arial, sans-serif" font-size="48" font-weight="900">218.49M</text>
  </g>

  <g transform="translate(394 100)">
    <rect width="302" height="176" rx="24" fill="#0B1120" stroke="#334155" stroke-width="2"/>
    <text x="24" y="54" fill="#CBD5E1" font-family="Inter, Arial, sans-serif" font-size="26" font-weight="800">5小时号池剩余量</text>
    <text x="24" y="112" fill="#20E3B2" font-family="Inter, Arial, sans-serif" font-size="48" font-weight="900">93%</text>
    <text x="126" y="108" fill="#94A3B8" font-family="Inter, Arial, sans-serif" font-size="18" font-weight="800">1h 8m 后刷新</text>
    <rect x="24" y="136" width="254" height="15" rx="7.5" fill="#334155"/>
    <rect x="24" y="136" width="236" height="15" rx="7.5" fill="#20E3B2"/>
  </g>

  <g transform="translate(538 210)">
    <rect width="146" height="142" rx="10" fill="#0F172A" stroke="#334155"/>
    <text x="12" y="26" fill="#E2E8F0" font-family="Inter, Arial, sans-serif" font-size="13" font-weight="900">刷新时间列表</text>
    <g font-family="Inter, Arial, sans-serif" font-size="13" font-weight="900">
      <text x="12" y="54" fill="#20E3B2">正常</text>
      <text x="54" y="54" fill="#CBD5E1">06/02 23:51</text>
      <text x="12" y="78" fill="#FBBF24">限流中</text>
      <text x="66" y="78" fill="#CBD5E1">06/03 01:27</text>
      <text x="12" y="102" fill="#20E3B2">正常</text>
      <text x="54" y="102" fill="#CBD5E1">06/03 01:38</text>
      <text x="12" y="126" fill="#20E3B2">正常</text>
      <text x="54" y="126" fill="#CBD5E1">06/03 01:50</text>
    </g>
  </g>

  <g transform="translate(44 336)">
    <text x="38" y="24" fill="#E2E8F0" font-family="Inter, Arial, sans-serif" font-size="28" font-weight="800">今日用量榜</text>
    <g transform="translate(248 -16)">
      <rect width="228" height="42" rx="14" fill="#07322F" stroke="#0F766E" stroke-width="2"/>
      <text x="18" y="27" fill="#CBD5E1" font-family="Inter, Arial, sans-serif" font-size="16" font-weight="900">账号：</text>
      <text x="72" y="27" fill="#20E3B2" font-family="Inter, Arial, sans-serif" font-size="16" font-weight="900">6</text>
      <text x="88" y="27" fill="#94A3B8" font-family="Inter, Arial, sans-serif" font-size="16" font-weight="900">/</text>
      <text x="100" y="27" fill="#FBBF24" font-family="Inter, Arial, sans-serif" font-size="16" font-weight="900">0</text>
      <text x="116" y="27" fill="#94A3B8" font-family="Inter, Arial, sans-serif" font-size="16" font-weight="900">/</text>
      <text x="128" y="27" fill="#FB7185" font-family="Inter, Arial, sans-serif" font-size="16" font-weight="900">1</text>
      <text x="144" y="27" fill="#94A3B8" font-family="Inter, Arial, sans-serif" font-size="16" font-weight="900">/</text>
      <text x="156" y="27" fill="#93C5FD" font-family="Inter, Arial, sans-serif" font-size="16" font-weight="900">7</text>
    </g>
    <g transform="translate(488 -16)">
      <rect width="164" height="42" rx="14" fill="#43230B" stroke="#92400E" stroke-width="2"/>
      <text x="18" y="27" fill="#CBD5E1" font-family="Inter, Arial, sans-serif" font-size="16" font-weight="900">容量：</text>
      <text x="76" y="27" fill="#FBBF24" font-family="Inter, Arial, sans-serif" font-size="16" font-weight="900">0 / 60</text>
    </g>
  </g>

  <g font-family="Inter, Arial, sans-serif" font-size="24" font-weight="800">
    <text x="44" y="424" fill="#20E3B2">#1</text>
    <text x="132" y="424" fill="#CBD5E1">示例用户A（demo.a@example.com）</text>
    <text x="696" y="424" text-anchor="end" fill="#20E3B2">83.34M</text>
    <path d="M44 443H696" stroke="#334155"/>
    <text x="44" y="484" fill="#20E3B2">#2</text>
    <text x="132" y="484" fill="#CBD5E1">示例用户B（demo.b@example.com）</text>
    <text x="696" y="484" text-anchor="end" fill="#20E3B2">70.44M</text>
    <path d="M44 503H696" stroke="#334155"/>
    <text x="44" y="544" fill="#20E3B2">#3</text>
    <text x="132" y="544" fill="#CBD5E1">示例用户C（demo.c@example.com）</text>
    <text x="696" y="544" text-anchor="end" fill="#20E3B2">16.66M</text>
    <path d="M44 563H696" stroke="#334155"/>
    <text x="44" y="604" fill="#20E3B2">#4</text>
    <text x="132" y="604" fill="#CBD5E1">示例用户D（demo.d@example.com）</text>
    <text x="696" y="604" text-anchor="end" fill="#20E3B2">10.00M</text>
  </g>
</svg>
