<svg width="640" height="560" viewBox="0 0 640 560" fill="none" xmlns="http://www.w3.org/2000/svg">
  <rect width="640" height="560" fill="#0F172A"/>
  <rect x="24" y="24" width="592" height="512" rx="26" fill="#111827" stroke="#334155" stroke-width="2"/>
  <text x="58" y="78" fill="#E2E8F0" font-family="Inter, Arial, sans-serif" font-size="28" font-weight="800">连接设置</text>
  <g font-family="Inter, Arial, sans-serif">
    <text x="58" y="126" fill="#CBD5E1" font-size="16" font-weight="700">sub2api Base URL</text>
    <rect x="58" y="140" width="524" height="46" rx="12" fill="#020617" stroke="#475569"/>
    <text x="76" y="170" fill="#94A3B8" font-size="17">http://172.16.5.12:8081</text>
    <text x="58" y="218" fill="#CBD5E1" font-size="16" font-weight="700">管理员 API Key</text>
    <rect x="58" y="232" width="524" height="46" rx="12" fill="#020617" stroke="#475569"/>
    <text x="76" y="262" fill="#94A3B8" font-size="17">sk-admin-demo-token</text>
    <text x="58" y="310" fill="#CBD5E1" font-size="16" font-weight="700">个人 JWT / Bearer Token（可选）</text>
    <rect x="58" y="324" width="524" height="46" rx="12" fill="#020617" stroke="#475569"/>
    <text x="76" y="354" fill="#94A3B8" font-size="17">Bearer demo-user-token</text>
    <text x="58" y="402" fill="#CBD5E1" font-size="16" font-weight="700">号池分组名称（可选）</text>
    <rect x="58" y="416" width="524" height="46" rx="12" fill="#020617" stroke="#475569"/>
    <text x="76" y="446" fill="#E2E8F0" font-size="17">OpenAI组</text>
    <text x="58" y="494" fill="#CBD5E1" font-size="16" font-weight="700">刷新间隔</text>
    <rect x="58" y="508" width="112" height="46" rx="12" fill="#020617" stroke="#20E3B2" stroke-opacity="0.8"/>
    <text x="114" y="538" text-anchor="middle" fill="#E2E8F0" font-size="17">30</text>
    <text x="182" y="538" fill="#94A3B8" font-size="17">秒</text>
    <rect x="422" y="492" width="160" height="46" rx="12" fill="#20E3B2"/>
    <text x="502" y="521" text-anchor="middle" fill="#031014" font-size="17" font-weight="900">保存配置</text>
  </g>
</svg>
