<svg width="740" height="460" viewBox="0 0 740 460" fill="none" xmlns="http://www.w3.org/2000/svg">
  <rect width="740" height="460" fill="#0B1120"/>
  <rect x="20" y="20" width="700" height="420" rx="28" fill="#111827" stroke="#334155" stroke-width="2"/>
  <circle cx="42" cy="42" r="10" fill="#FB4D5F"/>
  <circle cx="68" cy="42" r="10" fill="#F59E0B"/>
  <circle cx="94" cy="42" r="10" fill="#64748B"/>
  <text x="132" y="50" fill="#CBD5E1" font-family="Inter, Arial, sans-serif" font-size="18" font-weight="800">Token Orb 更新</text>

  <g transform="translate(52 86)">
    <rect width="636" height="310" rx="24" fill="#111827" stroke="#334155" stroke-width="2"/>
    <text x="42" y="52" fill="#E2E8F0" font-family="Inter, Arial, sans-serif" font-size="22" font-weight="900">检查更新</text>

    <text x="42" y="104" fill="#CBD5E1" font-family="Inter, Arial, sans-serif" font-size="18" font-weight="800">当前版本</text>
    <text x="586" y="104" text-anchor="end" fill="#93C5FD" font-family="Inter, Arial, sans-serif" font-size="28" font-weight="900">v0.2.1</text>

    <text x="42" y="154" fill="#CBD5E1" font-family="Inter, Arial, sans-serif" font-size="18" font-weight="800">最新版本</text>
    <text x="586" y="154" text-anchor="end" fill="#20E3B2" font-family="Inter, Arial, sans-serif" font-size="28" font-weight="900">v0.2.2</text>

    <rect x="42" y="184" width="544" height="56" rx="12" fill="#07131F" stroke="#0F766E"/>
    <text x="60" y="219" fill="#CCFBF1" font-family="Inter, Arial, sans-serif" font-size="16" font-weight="800">更新已安装，点击重启完成更新。</text>

    <text x="42" y="270" fill="#CBD5E1" font-family="Inter, Arial, sans-serif" font-size="16" font-weight="800">更新内容</text>
    <rect x="42" y="286" width="544" height="54" rx="12" fill="#0B1120" stroke="#334155"/>
    <text x="60" y="319" fill="#E2E8F0" font-family="Inter, Arial, sans-serif" font-size="15" font-weight="800">v0.2.2：优化平台监控与更新窗口体验。</text>
  </g>

  <g transform="translate(94 392)">
    <rect width="544" height="10" rx="5" fill="#334155"/>
    <rect width="544" height="10" rx="5" fill="#20E3B2"/>
  </g>
  <g transform="translate(94 418)">
    <rect width="126" height="42" rx="14" fill="#334155"/>
    <text x="63" y="27" text-anchor="middle" fill="#CBD5E1" font-family="Inter, Arial, sans-serif" font-size="16" font-weight="900">重新检查</text>
  </g>
  <g transform="translate(494 418)">
    <rect width="138" height="42" rx="14" fill="#20E3B2"/>
    <text x="69" y="27" text-anchor="middle" fill="#031014" font-family="Inter, Arial, sans-serif" font-size="16" font-weight="900">重启完成更新</text>
  </g>
</svg>
